<?xml version="1.0" encoding="UTF-8"?>
<svg width="14px" height="14px" viewBox="0 0 14 14" version="1.1" xmlns="http://www.w3.org/2000/svg" xmlns:xlink="http://www.w3.org/1999/xlink">
    <!-- Generator: sketchtool 63.1 (101010) - https://sketch.com -->
    <title>AD8224FD-E286-401B-876B-1BCA9E4058FB</title>
    <desc>Created with sketchtool.</desc>
    <g id="Page-1" stroke="none" stroke-width="1" fill="none" fill-rule="evenodd">
        <g id="Toast-1" transform="translate(-1052.000000, -112.000000)" fill="#FFFFFF" fill-rule="nonzero">
            <g id="Group-26" transform="translate(1052.000000, 111.000000)">
                <g id="warning" transform="translate(0.000000, 1.000000)">
                    <path d="M13.8158549,11.3748331 L8.28318992,1.65315026 C8.03026809,1.19472944 7.55603966,0.926 7.00277316,0.926 C6.44950665,0.926 5.99108584,1.19472944 5.72235639,1.65315026 L0.189691372,11.3748331 C-0.0632304574,11.8332539 -0.0632304574,12.3865204 0.189691372,12.8449412 C0.442613202,13.303362 0.916841632,13.5720915 1.45430052,13.5720915 L12.5038229,13.5720915 C13.0412818,13.5720915 13.5155103,13.303362 13.7684321,12.8449412 C14.0687768,12.3865204 14.0687768,11.8332539 13.8158549,11.3748331 Z M7.80896149,11.2641798 L6.33885335,11.2641798 L6.33885335,9.98376302 L7.80896149,9.98376302 L7.80896149,11.2641798 Z M7.80896149,9.24080515 L6.33885335,9.24080515 L6.33885335,5.57343862 L7.80896149,5.57343862 L7.80896149,9.24080515 Z" id="Shape"></path>
                </g>
            </g>
        </g>
    </g>
</svg>